# xmcd
#
# Track frame offsets: 
#        150
#        4580
#        40959
#        66297
#        110043
#        144357
#        163711
#        213831
#
# Disc length: 4014 seconds
#
# Revision: 1
# Processed by: cddbd v1.5.2PL0 Copyright (c) Steve Scherf et al.
# Submitted via: ExactAudioCopy v0.99pb4
#
DISCID=6a0fac08
DTITLE=Albert King - Wednesday Night In San Francisco
DYEAR=1990
DGENRE=Blues
TTITLE0=Watermelon Man
TTITLE1=Why You So Mean To Me
TTITLE2=I Get Evil
TTITLE3=Got To Be Some Changes
TTITLE4=Personal Manager
TTITLE5=Born Under A Bad Sign
TTITLE6=Don't Throw Your Love On Me So Strong
TTITLE7=Multimedia-Track
EXTD=Label: Fantasy, Inc. (Stax Records]\nSCD24 8556-2\n24 BIT Remaste
EXTD=red
EXTT0=
EXTT1=
EXTT2=
EXTT3=
EXTT4=
EXTT5=
EXTT6=
EXTT7=
PLAYORDER=
